<svg aria-hidden="true" style="position:absolute;width:0;height:0" xmlns="http://www.w3.org/2000/svg" overflow="hidden"><defs><symbol id="icon-bucket" viewBox="0 0 40 32"><path d="M40.027 7.082l-5.659 12.551a1.861 1.861 0 01-1.592 1.104h-.005l-16.248 1.084.936 2.686h17.709a3.765 3.765 0 11-3.765 3.767H13.831a3.765 3.765 0 11-3.765-3.767h3.4L6.209 3.797H1.896a1.883 1.883 0 110-3.766h5.659c.817.006 1.51.525 1.776 1.251l.004.013 1.095 3.133h27.873c1.04 0 1.884.843 1.885 1.883a2.136 2.136 0 01-.165.783l.005-.014zM11.752 8.194l3.469 9.943 16.18-1.079 3.994-8.863H11.753z"/></symbol><symbol id="icon-search" viewBox="0 0 32 32"><path d="M31.111 26.862a3.002 3.002 0 01-4.25 4.236l.001.001-8.769-8.78a11.896 11.896 0 01-6.132 1.68c-6.645 0-12.032-5.387-12.032-12.032S5.316-.065 11.961-.065c6.645 0 12.032 5.387 12.032 12.032 0 2.255-.62 4.365-1.7 6.169l.03-.055 8.788 8.78zm-19.1-23.846a8.987 8.987 0 108.987 8.987 8.993 8.993 0 00-8.987-8.987z"/></symbol></defs></svg>