<svg aria-hidden="true" style="position:absolute;width:0;height:0" xmlns="http://www.w3.org/2000/svg" overflow="hidden"><defs><symbol id="icon-facebook" viewBox="0 0 15 32"><path d="M14.995.013v5.148s-3.795-.375-4.748 1.075c-.52.8-.211 3.124-.257 4.798h5.034c-.425 1.949-.73 3.274-1.043 4.973H9.962v15.994H2.987V16.069H.019v-5.036h2.935c.15-3.686.206-7.335 2.036-9.184C7.047-.238 9.011.012 14.995.012z"/></symbol><symbol id="icon-instagram" viewBox="0 0 32 32"><path d="M27.976 32.001H3.985a4 4 0 01-3.999-3.999V4.011A4 4 0 013.985.012h23.991a4 4 0 013.999 3.999v23.991a4 4 0 01-3.999 3.999zM15.981 9.809h-.001a6.192 6.192 0 00-5.606 3.561l-.016.038a.343.343 0 01-.028.064l.001-.001a5.093 5.093 0 00-.142.357l-.018.056c-.024.062-.05.125-.071.187-.046.137-.084.287-.125.425a4.512 4.512 0 00-.052.2 5.3 5.3 0 00-.076.462c-.009.062-.021.125-.029.187a5.87 5.87 0 00-.036.661v.001a6.198 6.198 0 0012.396 0 6.56 6.56 0 00-.039-.691l.003.029c-.008-.062-.02-.125-.029-.187a5.635 5.635 0 00-.083-.499l.007.037a5.773 5.773 0 00-.063-.242l.01.042c-.035-.137-.072-.287-.125-.425-.021-.062-.047-.125-.071-.187a6.62 6.62 0 00-.18-.464l.02.052a.297.297 0 01-.027-.06l-.001-.002c-1.004-2.141-3.141-3.597-5.618-3.599zm12.395-4.598v-.003c0-.882-.715-1.597-1.597-1.597h-3.205c-.882 0-1.597.715-1.597 1.597v3.204c0 .882.715 1.597 1.597 1.597h3.205c.882 0 1.597-.715 1.597-1.597V5.21zm0 8.197h-2.949c.222.778.35 1.671.35 2.595 0 5.41-4.386 9.796-9.796 9.796s-9.796-4.386-9.796-9.796c0-.923.128-1.817.367-2.664l-.017.069H3.586v13.398c0 .882.715 1.597 1.597 1.597h21.598c.882 0 1.597-.715 1.597-1.597V13.408z"/></symbol><symbol id="icon-pinterest" viewBox="0 0 24 32"><path d="M10.173 20.78c-.261 1.05-.525 2.137-.797 3.199a23.353 23.353 0 01-.951 3.25l.054-.164a15.909 15.909 0 01-2.575 4.438l.022-.027c-.718.825-.566.5-.782.45-.165-.038-.179-.2-.211-.425a24.233 24.233 0 01.016-4.268l-.007.094c.115-1.599.377-3.082.774-4.508l-.038.16c.605-2.574 1.182-5.098 1.793-7.697.063-.162.104-.35.112-.546v-.004a7.876 7.876 0 01-.533-2.087l-.003-.037a6.808 6.808 0 01.184-2.484l-.011.047a4.047 4.047 0 012.341-2.914l.026-.01c.263-.091.565-.144.88-.144.471 0 .915.118 1.302.327l-.015-.007a2.32 2.32 0 011.081 1.535l.002.015a5.586 5.586 0 01-.108 2.4l.009-.039c-.334 1.524-.772 2.674-1.171 4.136a4.597 4.597 0 00-.233 2.287l-.003-.025a2.663 2.663 0 001.05 1.594l.008.005a3.09 3.09 0 002.041.574l-.01.001a4.47 4.47 0 003.303-1.946l.01-.016a11.526 11.526 0 002.091-5.822l.002-.039a14.831 14.831 0 00.086-2.548l.002.037a6.81 6.81 0 00-1.42-3.914l.012.016a6.626 6.626 0 00-3.092-2.124l-.047-.013a10.131 10.131 0 00-2.959-.432c-.609 0-1.205.053-1.785.153l.062-.009a8.289 8.289 0 00-6.12 4.365l-.022.046a8.738 8.738 0 00-1.046 4.175v.091-.005a5.525 5.525 0 00.86 3.147l-.013-.023c.166.25.41.462.572.75a2.13 2.13 0 01-.154 1.462l.006-.013c-.137.537-.152 1.262-.772 1.275a1.708 1.708 0 01-.803-.304l.005.004a6.395 6.395 0 01-3.023-4.642l-.003-.032c-.118-.607-.185-1.305-.185-2.018s.067-1.411.196-2.087l-.011.069a11.596 11.596 0 015.444-7.655l.054-.029A12.774 12.774 0 0110.485.158l.067-.007c.59-.089 1.284-.147 1.988-.162h.018a11.987 11.987 0 015.482 1.03l-.076-.03a11.152 11.152 0 013.716 2.678l.008.009a10.143 10.143 0 012.274 4.064l.018.072c.292.85.473 1.83.5 2.848v.013a17.324 17.324 0 01-.407 3.077l.022-.116a11.66 11.66 0 01-4.761 8.036l-.035.024a8.572 8.572 0 01-5.014 1.374h.016a5.79 5.79 0 01-2.507-.74l.029.015a4.171 4.171 0 01-1.638-1.543l-.01-.019z"/></symbol><symbol id="icon-twitter" viewBox="0 0 39 32"><path d="M26.812.022a8.277 8.277 0 016.387 2.537l.003.003a13.3 13.3 0 004.212-1.436l-.07.035 1.005-.554a8.157 8.157 0 01-2.602 3.79l-.015.012a3.882 3.882 0 01-.867.621l-.021.01v.015a14.99 14.99 0 004.67-1.27l-.094.038v.015a13.234 13.234 0 01-2.721 3.123l-.021.017c-.42.339-.842.677-1.262 1a23.448 23.448 0 01-.397 5.348l.023-.146c-2.019 9.066-7.37 15.223-15.837 17.87-2.009.597-4.318.941-6.707.941-1.675 0-3.31-.169-4.889-.491l.157.027a30.287 30.287 0 01-4.951-1.631l.2.076a19.495 19.495 0 01-2.376-1.235l.087.05c-.237-.139-.473-.292-.71-.431a14.064 14.064 0 002.62.09l-.038.002c.796-.123 1.575-.092 2.309-.246a16.55 16.55 0 004.934-1.798l-.084.043a9.196 9.196 0 002.2-1.44l-.01.009a7.026 7.026 0 01-2.454-.447l.049.016c-2.432-.84-4.308-2.73-5.112-5.114l-.017-.057a8.014 8.014 0 003.666-.183l-.056.014a5.792 5.792 0 01-2.659-1.073l.016.011c-2.296-1.372-3.81-3.845-3.81-6.671 0-.084.001-.168.004-.252v.012c.277.123.553.262.828.385.486.204 1.055.37 1.646.471l.047.007a2.17 2.17 0 001.119.09l-.013.002h-.04c-.406-.462-1.07-.785-1.479-1.293a8.219 8.219 0 01-2.036-5.429c0-.673.081-1.327.232-1.954l-.012.056a9.197 9.197 0 01.892-2.154l-.024.045c.014 0 .026.015.04.015.216.319.457.597.726.843l.004.003c.716.862 1.505 1.62 2.371 2.283l.035.026a23.59 23.59 0 009.721 4.741l.159.03c1.084.287 2.333.46 3.619.477h.011a7.39 7.39 0 01-.224-1.827c0-.703.096-1.383.275-2.028l-.013.053A7.987 7.987 0 0123.983.716l.051-.02A8.701 8.701 0 0125.77.152l.058-.01c.326-.046.656-.077.984-.123z"/></symbol></defs></svg>